<svg id="Layer_1" data-name="Layer 1" xmlns="http://www.w3.org/2000/svg" viewBox="0 0 850.39 566.93">
  <defs>
    <style>
      .cls-1 {
        fill: #003f70;
      }

      .cls-2 {
        fill: #7296b7;
      }
    </style>
  </defs>
  <g>
    <g>
      <circle class="cls-1" cx="117.56" cy="277.1" r="16.39"/>
      <circle class="cls-1" cx="138.32" cy="254.81" r="10.69"/>
      <g>
        <path class="cls-1" d="M220.77,305.67A32.72,32.72,0,0,0,188.09,273V249.15a56.52,56.52,0,0,0,0,113V338.35A32.72,32.72,0,0,0,220.77,305.67Zm-32.68,31.11a31.11,31.11,0,1,1,31.11-31.11A31.15,31.15,0,0,1,188.09,336.78Z"/>
        <g>
          <path class="cls-2" d="M188.09,252.55v2a51.14,51.14,0,0,1,0,102.28v2a53.12,53.12,0,0,0,0-106.24Z"/>
          <path class="cls-2" d="M188.09,255.94v1.91a47.82,47.82,0,0,1,0,95.64v1.91a49.73,49.73,0,0,0,0-99.46Z"/>
          <path class="cls-2" d="M188.09,259.34v1.83a44.5,44.5,0,0,1,0,89V352a46.33,46.33,0,0,0,0-92.66Z"/>
          <path class="cls-2" d="M188.09,262.73v1.76a41.18,41.18,0,0,1,0,82.36v1.76a42.94,42.94,0,0,0,0-85.88Z"/>
          <path class="cls-2" d="M188.09,266.13v1.69a37.86,37.86,0,0,1,0,75.71v1.68a39.54,39.54,0,0,0,0-79.08Z"/>
          <path class="cls-2" d="M188.09,269.52v1.62a34.53,34.53,0,0,1,0,69.06v1.62a36.15,36.15,0,0,0,0-72.3Z"/>
          <path class="cls-2" d="M188.09,272.92v1.54a31.21,31.21,0,0,1,0,62.42v1.54a32.75,32.75,0,0,0,0-65.5Z"/>
          <path class="cls-2" d="M188.09,249.15h0v2.06h0a54.47,54.47,0,0,1,0,108.93h0v2.05h0a56.52,56.52,0,0,0,0-113Z"/>
        </g>
      </g>
    </g>
    <g>
      <path class="cls-2" d="M264.35,303.3A16.38,16.38,0,0,1,271,297a22.38,22.38,0,0,1,19.52,0A16.3,16.3,0,0,1,297,303.3a18.16,18.16,0,0,1,2.36,9.27,17.94,17.94,0,0,1-2.36,9.24,16.32,16.32,0,0,1-6.59,6.27,22.25,22.25,0,0,1-19.5,0,16.41,16.41,0,0,1-6.6-6.27,17.85,17.85,0,0,1-2.37-9.24A18.06,18.06,0,0,1,264.35,303.3Zm11.24,14.76a7.1,7.1,0,0,0,10.22,0,8,8,0,0,0,1.94-5.56,7.73,7.73,0,0,0-1.94-5.48,7.27,7.27,0,0,0-10.22,0,7.7,7.7,0,0,0-2,5.48A8,8,0,0,0,275.59,318.06Z"/>
      <path class="cls-2" d="M306.07,303.23a15.59,15.59,0,0,1,6.45-6.27,19.93,19.93,0,0,1,9.52-2.21,20.4,20.4,0,0,1,8.85,1.85,15.06,15.06,0,0,1,6.2,5.23,14.81,14.81,0,0,1,2.49,7.72H327.94a5.57,5.57,0,0,0-2.16-3.54,6.61,6.61,0,0,0-3.88-1.16,5.79,5.79,0,0,0-4.71,2.13,8.68,8.68,0,0,0-1.76,5.67,8.37,8.37,0,0,0,1.76,5.55,5.82,5.82,0,0,0,4.71,2.1,6.33,6.33,0,0,0,4-1.29,5.27,5.27,0,0,0,2-3.35h11.64a14.78,14.78,0,0,1-2.6,7.66,15.71,15.71,0,0,1-6.18,5.16,21.68,21.68,0,0,1-18.3-.36,15.73,15.73,0,0,1-6.43-6.22,18.44,18.44,0,0,1-2.29-9.33A18.66,18.66,0,0,1,306.07,303.23Z"/>
      <path class="cls-2" d="M373.08,327a20.66,20.66,0,0,1-20.56,1,15.81,15.81,0,0,1-6.31-6.3,20.59,20.59,0,0,1,0-18.68,15.5,15.5,0,0,1,6.28-6.18,19,19,0,0,1,9.16-2.17,18.71,18.71,0,0,1,8.93,2.06,15,15,0,0,1,6,5.75,16.5,16.5,0,0,1,2.14,8.4,21.38,21.38,0,0,1-.44,4.7h-23a5.4,5.4,0,0,0,1.94,4,7.07,7.07,0,0,0,4.68,1.51,8.57,8.57,0,0,0,3.68-.74,4.52,4.52,0,0,0,2.21-2h11A13.39,13.39,0,0,1,373.08,327ZM367,308.3a3.83,3.83,0,0,0-1.69-3.13,6.9,6.9,0,0,0-4.1-1.15,6.81,6.81,0,0,0-4.06,1.15,4,4,0,0,0-1.76,3.13Z"/>
      <path class="cls-2" d="M420.31,295.93v33.43h-11v-3.31a11.48,11.48,0,0,1-4.6,3.13,16.91,16.91,0,0,1-6.29,1.15,15.38,15.38,0,0,1-8.21-2.18,14.67,14.67,0,0,1-5.57-6.11,19.75,19.75,0,0,1-2-9.11,20.61,20.61,0,0,1,2.1-9.5,15.42,15.42,0,0,1,5.93-6.4,17,17,0,0,1,8.83-2.28q6.93,0,10.53,4.06l.75-2.88Zm-13.46,22a8.2,8.2,0,0,0,0-10.89,7.17,7.17,0,0,0-5.3-2.07,6.88,6.88,0,0,0-5.23,2.1,8.35,8.35,0,0,0,0,10.82,6.88,6.88,0,0,0,5.23,2.1A7.16,7.16,0,0,0,406.85,318Z"/>
      <path class="cls-2" d="M457.37,298.54q3.35,3.79,3.34,10v20.78H449.32v-18q0-6.26-5.11-6.26t-5.21,6v18.26H427.65V295.93h9.52l.58,3.38a10.32,10.32,0,0,1,4.31-3.34,14.57,14.57,0,0,1,6-1.22Q454,294.75,457.37,298.54Z"/>
      <path class="cls-1" d="M497.32,297a15.43,15.43,0,0,1,5.9,6.31,21.53,21.53,0,0,1,0,18.55,15.31,15.31,0,0,1-5.86,6.27,17.76,17.76,0,0,1-15,1,11,11,0,0,1-4.6-3.3l-.58,3.52h-9.52v-50.5h11.43v19q3.45-3.09,9.63-3.09A16.58,16.58,0,0,1,497.32,297Zm-5.62,20.92a8.41,8.41,0,0,0,0-10.82,6.84,6.84,0,0,0-5.22-2.1,7.18,7.18,0,0,0-5.3,2.07,8.23,8.23,0,0,0,0,10.89,7.17,7.17,0,0,0,5.3,2.06A6.84,6.84,0,0,0,491.7,317.91Z"/>
      <path class="cls-1" d="M512.08,303.3a16.41,16.41,0,0,1,6.59-6.31,22.38,22.38,0,0,1,19.52,0,16.32,16.32,0,0,1,6.58,6.31,18.15,18.15,0,0,1,2.35,9.27,17.94,17.94,0,0,1-2.35,9.24,16.29,16.29,0,0,1-6.6,6.27,22.25,22.25,0,0,1-19.5,0,16.45,16.45,0,0,1-6.59-6.27,17.76,17.76,0,0,1-2.38-9.24A18,18,0,0,1,512.08,303.3Zm11.23,14.76a7.1,7.1,0,0,0,10.22,0,8,8,0,0,0,2-5.56,7.74,7.74,0,0,0-2-5.48,7.27,7.27,0,0,0-10.22,0,7.7,7.7,0,0,0-2,5.48A8,8,0,0,0,523.31,318.06Z"/>
      <path class="cls-1" d="M561.39,329.36H549l10.53-16.14-11.14-17.29h13.12l5.53,9.49,5-9.49h12.65L573.83,313l10.46,16.36h-13q-3.6-6.33-5-8.91Z"/>
      <path class="cls-1" d="M589.34,328.44a6.23,6.23,0,0,1-1.85-4.54,6.29,6.29,0,0,1,1.85-4.57,6.91,6.91,0,0,1,9.54,0,6.45,6.45,0,0,1-4.74,11A6.41,6.41,0,0,1,589.34,328.44Z"/>
      <path class="cls-1" d="M606.81,289.87a7,7,0,0,1,0-10.13,7.45,7.45,0,0,1,5.33-2.07,7.35,7.35,0,0,1,5.31,2.07,7.06,7.06,0,0,1,0,10.13,7.26,7.26,0,0,1-5.31,2.11A7.36,7.36,0,0,1,606.81,289.87Zm-.42,6.06h11.43v33.43H606.39Z"/>
      <path class="cls-1" d="M626,303.3a16.38,16.38,0,0,1,6.6-6.31,22.38,22.38,0,0,1,19.52,0,16.3,16.3,0,0,1,6.57,6.31,18.16,18.16,0,0,1,2.36,9.27,17.94,17.94,0,0,1-2.36,9.24,16.32,16.32,0,0,1-6.59,6.27,22.25,22.25,0,0,1-19.5,0,16.41,16.41,0,0,1-6.6-6.27,17.85,17.85,0,0,1-2.37-9.24A18.06,18.06,0,0,1,626,303.3Zm11.24,14.76a7.1,7.1,0,0,0,10.22,0,8.08,8.08,0,0,0,1.94-5.56,7.78,7.78,0,0,0-1.94-5.48,7.27,7.27,0,0,0-10.22,0,7.7,7.7,0,0,0-2,5.48A8,8,0,0,0,637.22,318.06Z"/>
    </g>
    <g>
      <path class="cls-2" d="M273.58,350v1.18a5,5,0,0,0-.82-.07,3,3,0,0,0-2.37.95,3.75,3.75,0,0,0-.85,2.61V361h-1.45V350h1.2l.23,1.79a2.46,2.46,0,0,1,1.09-1.42,3.5,3.5,0,0,1,1.89-.49A4.24,4.24,0,0,1,273.58,350Z"/>
      <path class="cls-2" d="M283.74,360.39a5.78,5.78,0,0,1-3.29.95,5.57,5.57,0,0,1-2.89-.73,5,5,0,0,1-1.94-2.06,6.62,6.62,0,0,1-.68-3.05,6.33,6.33,0,0,1,.7-3,5,5,0,0,1,1.92-2,5.48,5.48,0,0,1,2.8-.72,5.39,5.39,0,0,1,2.69.66,4.58,4.58,0,0,1,1.82,1.83,5.42,5.42,0,0,1,.64,2.66,7.69,7.69,0,0,1-.07,1.13h-9.08a4.34,4.34,0,0,0,1.18,3,3.9,3.9,0,0,0,2.91,1.12,4.19,4.19,0,0,0,2.3-.62,3.08,3.08,0,0,0,1.36-1.65h1.43A4.25,4.25,0,0,1,283.74,360.39Zm.33-5.52a4,4,0,0,0-1-2.83,3.5,3.5,0,0,0-2.67-1.08,3.82,3.82,0,0,0-4,3.91Z"/>
      <path class="cls-2" d="M298.66,343.72V361H297.5l-.15-2.34a4.1,4.1,0,0,1-1.68,1.91,5.24,5.24,0,0,1-2.79.74,5.16,5.16,0,0,1-2.71-.72,4.9,4.9,0,0,1-1.87-2.05,6.69,6.69,0,0,1-.67-3,6.51,6.51,0,0,1,.69-3.06,5,5,0,0,1,1.87-2,5.19,5.19,0,0,1,2.72-.72,5.45,5.45,0,0,1,2.7.66,4,4,0,0,1,1.72,1.77v-8.43ZM296,358.8a4.87,4.87,0,0,0,1.11-3.35,4.67,4.67,0,0,0-1.09-3.24,4.09,4.09,0,0,0-5.85.06,5.39,5.39,0,0,0,0,6.55,4,4,0,0,0,5.83,0Z"/>
      <path class="cls-2" d="M310.41,360.39a5.78,5.78,0,0,1-3.29.95,5.57,5.57,0,0,1-2.89-.73,5,5,0,0,1-1.94-2.06,6.62,6.62,0,0,1-.68-3.05,6.45,6.45,0,0,1,.69-3,5.1,5.1,0,0,1,1.93-2,5.46,5.46,0,0,1,2.8-.72,5.39,5.39,0,0,1,2.69.66,4.58,4.58,0,0,1,1.82,1.83,5.42,5.42,0,0,1,.64,2.66,7.69,7.69,0,0,1-.07,1.13H303a4.35,4.35,0,0,0,1.19,3,3.9,3.9,0,0,0,2.91,1.12,4.22,4.22,0,0,0,2.3-.62,3.08,3.08,0,0,0,1.36-1.65h1.43A4.25,4.25,0,0,1,310.41,360.39Zm.33-5.52a4,4,0,0,0-1-2.83A3.5,3.5,0,0,0,307,351a3.83,3.83,0,0,0-4,3.91Z"/>
      <path class="cls-2" d="M323.94,350v11h-1.43v-9.82H316.7V361h-1.41v-9.82H313.8V350h1.49v-2.29a4.32,4.32,0,0,1,1.14-3.15,4.24,4.24,0,0,1,3.19-1.18,4.19,4.19,0,0,1,3.13,1.14,4.32,4.32,0,0,1,1.19,3.05h-1.36a3.05,3.05,0,0,0-5.09-2.14,3.09,3.09,0,0,0-.79,2.28V350Z"/>
      <path class="cls-2" d="M335.48,350.88a4.66,4.66,0,0,1,1.13,3.36V361h-1.45v-6.48c0-2.36-1-3.54-2.87-3.54a3.43,3.43,0,0,0-2.49.93,3.19,3.19,0,0,0-.95,2.38V361h-1.43V350h1.19l.2,1.71a3.66,3.66,0,0,1,1.52-1.47,4.61,4.61,0,0,1,2.18-.55A3.93,3.93,0,0,1,335.48,350.88Z"/>
      <path class="cls-2" d="M340.3,346.46a1.22,1.22,0,0,1,0-1.69,1.12,1.12,0,0,1,.84-.35,1.15,1.15,0,0,1,.86.35,1.28,1.28,0,0,1,0,1.69,1.14,1.14,0,0,1-.86.34A1.11,1.11,0,0,1,340.3,346.46Zm.14,3.57h1.44v11h-1.44Z"/>
      <path class="cls-2" d="M353.87,350.88a4.66,4.66,0,0,1,1.12,3.36V361h-1.44v-6.48q0-3.54-2.87-3.54a3.4,3.4,0,0,0-2.49.93,3.19,3.19,0,0,0-.95,2.38V361h-1.43V350H347l.2,1.71a3.75,3.75,0,0,1,1.53-1.47,4.61,4.61,0,0,1,2.18-.55A4,4,0,0,1,353.87,350.88Z"/>
      <path class="cls-2" d="M368.82,350V361a5.42,5.42,0,0,1-.67,2.71,4.67,4.67,0,0,1-1.89,1.82,6,6,0,0,1-2.84.65,5.56,5.56,0,0,1-3.54-1.1,4.66,4.66,0,0,1-1.71-3.05h1.41a3.13,3.13,0,0,0,1.28,2.11,4.39,4.39,0,0,0,2.58.74,3.87,3.87,0,0,0,2.91-1.06,3.91,3.91,0,0,0,1-2.82v-2.68a4.18,4.18,0,0,1-1.72,1.74,5.66,5.66,0,0,1-5.34-.08,4.71,4.71,0,0,1-1.79-2,6.38,6.38,0,0,1,0-5.53,4.93,4.93,0,0,1,1.81-2,5.22,5.22,0,0,1,2.8-.73,5,5,0,0,1,2.59.65,4.3,4.3,0,0,1,1.68,1.8l.12-2.14Zm-3.47,8.75a3.72,3.72,0,0,0,1.37-1.52,4.55,4.55,0,0,0,.48-2.08,4.63,4.63,0,0,0-.46-2.08,3.72,3.72,0,0,0-1.37-1.52,3.83,3.83,0,0,0-2.11-.57,3.53,3.53,0,0,0-2.83,1.22,4.38,4.38,0,0,0-1.05,3,4.28,4.28,0,0,0,1.05,2.95,3.52,3.52,0,0,0,2.81,1.19A3.85,3.85,0,0,0,365.35,358.78Z"/>
      <path class="cls-2" d="M378.49,352.62a5.47,5.47,0,0,1,2.07-2.12,5.8,5.8,0,0,1,3-.78,5.92,5.92,0,0,1,3,.78,5.43,5.43,0,0,1,2.08,2.12,6.13,6.13,0,0,1,0,5.86,5.59,5.59,0,0,1-2.09,2.09,6.25,6.25,0,0,1-6,0,5.42,5.42,0,0,1-2.08-2.09,6.1,6.1,0,0,1,0-5.86Zm1.3,5.22a4.21,4.21,0,0,0,1.54,1.62,4.28,4.28,0,0,0,2.24.59,4.34,4.34,0,0,0,2.25-.59,4.19,4.19,0,0,0,1.56-1.62,4.59,4.59,0,0,0,.56-2.28,4.74,4.74,0,0,0-.56-2.32,4.15,4.15,0,0,0-1.55-1.64,4.35,4.35,0,0,0-2.26-.59,4.28,4.28,0,0,0-2.24.59,4.17,4.17,0,0,0-1.54,1.63,4.86,4.86,0,0,0-.56,2.33A4.69,4.69,0,0,0,379.79,357.84Z"/>
      <path class="cls-2" d="M392.35,352.49a5,5,0,0,1,2-2.05,6.25,6.25,0,0,1,6.29.27,4.2,4.2,0,0,1,1.73,2.73h-1.45a3.09,3.09,0,0,0-1.3-1.79,4.19,4.19,0,0,0-2.39-.66,4,4,0,0,0-3,1.19,5.53,5.53,0,0,0,0,6.66,3.82,3.82,0,0,0,3,1.23,4.29,4.29,0,0,0,2.44-.66,3,3,0,0,0,1.28-1.78h1.45a4.19,4.19,0,0,1-1.74,2.7,5.65,5.65,0,0,1-3.35,1,5.88,5.88,0,0,1-2.94-.72,4.87,4.87,0,0,1-2-2.05,6.91,6.91,0,0,1,0-6.08Z"/>
      <path class="cls-2" d="M413.23,360.39a5.74,5.74,0,0,1-3.29.95,5.62,5.62,0,0,1-2.89-.73,5,5,0,0,1-1.93-2.06,7,7,0,0,1,0-6.08,5,5,0,0,1,1.93-2,5.81,5.81,0,0,1,5.49-.06,4.64,4.64,0,0,1,1.82,1.83,5.54,5.54,0,0,1,.64,2.66,7.59,7.59,0,0,1-.08,1.13h-9.08a4.34,4.34,0,0,0,1.18,3,3.9,3.9,0,0,0,2.91,1.12,4.25,4.25,0,0,0,2.31-.62,3.11,3.11,0,0,0,1.35-1.65H415A4.17,4.17,0,0,1,413.23,360.39Zm.33-5.52a4,4,0,0,0-1-2.83,3.47,3.47,0,0,0-2.66-1.08,3.83,3.83,0,0,0-4,3.91Z"/>
      <path class="cls-2" d="M428.16,350v11h-1.34v-2.31a4.31,4.31,0,0,1-1.71,1.89,5.17,5.17,0,0,1-2.76.73,5.1,5.1,0,0,1-2.7-.72,4.92,4.92,0,0,1-1.85-2.05,7.18,7.18,0,0,1,0-6.08,5,5,0,0,1,1.88-2.05,5.21,5.21,0,0,1,2.74-.72,5.47,5.47,0,0,1,2.73.68,3.92,3.92,0,0,1,1.69,1.85L427,350Zm-2.63,8.77a4.87,4.87,0,0,0,1.11-3.35,4.66,4.66,0,0,0-1.08-3.24,4.11,4.11,0,0,0-5.86.06,5.39,5.39,0,0,0,0,6.55,4,4,0,0,0,5.83,0Z"/>
      <path class="cls-2" d="M440,350.88a4.66,4.66,0,0,1,1.12,3.36V361h-1.44v-6.48q0-3.54-2.87-3.54a3.4,3.4,0,0,0-2.49.93,3.19,3.19,0,0,0-.95,2.38V361h-1.43V350h1.18l.2,1.71a3.75,3.75,0,0,1,1.53-1.47,4.61,4.61,0,0,1,2.18-.55A4,4,0,0,1,440,350.88Z"/>
      <path class="cls-2" d="M444.79,352.62a5.47,5.47,0,0,1,2.07-2.12,5.8,5.8,0,0,1,3-.78,5.89,5.89,0,0,1,3,.78,5.43,5.43,0,0,1,2.08,2.12,6.13,6.13,0,0,1,0,5.86,5.59,5.59,0,0,1-2.09,2.09,6.25,6.25,0,0,1-6,0,5.42,5.42,0,0,1-2.08-2.09,6.1,6.1,0,0,1,0-5.86Zm1.3,5.22a4.21,4.21,0,0,0,1.54,1.62,4.28,4.28,0,0,0,2.24.59,4.34,4.34,0,0,0,2.25-.59,4.19,4.19,0,0,0,1.56-1.62,4.59,4.59,0,0,0,.57-2.28,4.75,4.75,0,0,0-.57-2.32,4.15,4.15,0,0,0-1.55-1.64,4.35,4.35,0,0,0-2.26-.59,4.28,4.28,0,0,0-2.24.59,4.17,4.17,0,0,0-1.54,1.63,4.86,4.86,0,0,0-.56,2.33A4.69,4.69,0,0,0,446.09,357.84Z"/>
      <path class="cls-2" d="M468.85,350V361a5.31,5.31,0,0,1-.67,2.71,4.67,4.67,0,0,1-1.89,1.82,6,6,0,0,1-2.84.65,5.56,5.56,0,0,1-3.54-1.1A4.7,4.7,0,0,1,458.2,362h1.41a3.13,3.13,0,0,0,1.28,2.11,4.39,4.39,0,0,0,2.58.74,3.87,3.87,0,0,0,2.91-1.06,3.91,3.91,0,0,0,1-2.82v-2.68a4.18,4.18,0,0,1-1.72,1.74,5.66,5.66,0,0,1-5.34-.08,4.71,4.71,0,0,1-1.79-2,6.38,6.38,0,0,1,0-5.53,4.93,4.93,0,0,1,1.81-2,5.22,5.22,0,0,1,2.8-.73,5,5,0,0,1,2.59.65,4.3,4.3,0,0,1,1.68,1.8l.12-2.14Zm-3.47,8.75a3.72,3.72,0,0,0,1.37-1.52,4.55,4.55,0,0,0,.48-2.08,4.63,4.63,0,0,0-.46-2.08,3.72,3.72,0,0,0-1.37-1.52,3.83,3.83,0,0,0-2.11-.57,3.53,3.53,0,0,0-2.83,1.22,4.38,4.38,0,0,0-1,3,4.28,4.28,0,0,0,1,2.95,3.52,3.52,0,0,0,2.81,1.19A3.85,3.85,0,0,0,465.38,358.78Z"/>
      <path class="cls-2" d="M478.1,350v1.18a5,5,0,0,0-.82-.07,3,3,0,0,0-2.37.95,3.75,3.75,0,0,0-.85,2.61V361h-1.45V350h1.2l.23,1.79a2.5,2.5,0,0,1,1.09-1.42,3.53,3.53,0,0,1,1.89-.49A4.24,4.24,0,0,1,478.1,350Z"/>
      <path class="cls-2" d="M490.49,350v11h-1.33v-2.31a4.39,4.39,0,0,1-1.72,1.89,5.13,5.13,0,0,1-2.76.73,5,5,0,0,1-2.69-.72,4.94,4.94,0,0,1-1.86-2.05,6.56,6.56,0,0,1-.67-3,6.68,6.68,0,0,1,.68-3.05,5.05,5.05,0,0,1,1.88-2.05,5.21,5.21,0,0,1,2.74-.72,5.45,5.45,0,0,1,2.73.68,3.87,3.87,0,0,1,1.69,1.85l.13-2.22Zm-2.63,8.77a4.87,4.87,0,0,0,1.11-3.35,4.66,4.66,0,0,0-1.08-3.24A3.71,3.71,0,0,0,485,351a3.75,3.75,0,0,0-3,1.26,5.43,5.43,0,0,0,0,6.55,4,4,0,0,0,5.83,0Z"/>
      <path class="cls-2" d="M502.76,350.45a5.07,5.07,0,0,1,1.88,2.06,7,7,0,0,1,0,6.08,5,5,0,0,1-1.88,2,5.18,5.18,0,0,1-2.73.72,5.34,5.34,0,0,1-2.65-.65,4.06,4.06,0,0,1-1.73-1.75v6.89h-1.38V350h1.16l.15,2.31a4.27,4.27,0,0,1,1.72-1.89,5.11,5.11,0,0,1,2.75-.73A5,5,0,0,1,502.76,350.45Zm0,8.35a5.36,5.36,0,0,0,0-6.52,4,4,0,0,0-5.83,0,4.9,4.9,0,0,0-1.09,3.35,4.56,4.56,0,0,0,1.09,3.21,4.07,4.07,0,0,0,5.82-.05Z"/>
      <path class="cls-2" d="M508.37,343.72h1.46v8a3.51,3.51,0,0,1,1.51-1.44,4.59,4.59,0,0,1,2.15-.53,3.92,3.92,0,0,1,3,1.16,4.66,4.66,0,0,1,1.13,3.36V361h-1.47v-6.48a3.91,3.91,0,0,0-.76-2.7,2.69,2.69,0,0,0-2.09-.84,3.5,3.5,0,0,0-2.49.92,3.13,3.13,0,0,0-1,2.39V361h-1.43Z"/>
      <path class="cls-2" d="M530.22,350l-5,13.32a4.59,4.59,0,0,1-1.4,2,3.48,3.48,0,0,1-2.12.6,5.33,5.33,0,0,1-1.52-.2v-1.21a5.24,5.24,0,0,0,1.28.18,2.49,2.49,0,0,0,1.54-.4,3.09,3.09,0,0,0,.87-1.32l.48-1.31L519.62,350h1.52L525,359.9l3.69-9.87Z"/>
    </g>
  </g>
</svg>
